<svg width="87" height="87" viewBox="0 0 87 87" fill="none" xmlns="http://www.w3.org/2000/svg">
<path d="M9.32141 21.7501C9.32141 18.4538 10.6308 15.2926 12.9617 12.9618C15.2925 10.631 18.4537 9.32153 21.75 9.32153H32.1372C32.9612 9.32153 33.7515 9.64889 34.3342 10.2316C34.9169 10.8143 35.2443 11.6046 35.2443 12.4287C35.2443 13.2527 34.9169 14.0431 34.3342 14.6258C33.7515 15.2085 32.9612 15.5358 32.1372 15.5358H21.75C20.1019 15.5358 18.5212 16.1905 17.3558 17.3559C16.1904 18.5213 15.5357 20.102 15.5357 21.7501V32.1311C15.5357 32.9551 15.2083 33.7454 14.6256 34.3281C14.0429 34.9109 13.2526 35.2382 12.4286 35.2382C11.6045 35.2382 10.8142 34.9109 10.2315 34.3281C9.64877 33.7454 9.32141 32.9551 9.32141 32.1311V21.7501ZM51.7619 12.4287C51.7619 11.6046 52.0892 10.8143 52.6719 10.2316C53.2546 9.64889 54.045 9.32153 54.869 9.32153H65.25C68.5462 9.32153 71.7075 10.631 74.0383 12.9618C76.3691 15.2926 77.6786 18.4538 77.6786 21.7501V32.1311C77.6786 32.9551 77.3512 33.7454 76.7685 34.3281C76.1858 34.9109 75.3955 35.2382 74.5714 35.2382C73.7473 35.2382 72.957 34.9109 72.3743 34.3281C71.7916 33.7454 71.4643 32.9551 71.4643 32.1311V21.7501C71.4643 20.102 70.8095 18.5213 69.6441 17.3559C68.4787 16.1905 66.8981 15.5358 65.25 15.5358H54.869C54.045 15.5358 53.2546 15.2085 52.6719 14.6258C52.0892 14.0431 51.7619 13.2527 51.7619 12.4287ZM12.4286 51.762C13.2526 51.762 14.0429 52.0894 14.6256 52.6721C15.2083 53.2548 15.5357 54.0451 15.5357 54.8691V65.2501C15.5357 66.8982 16.1904 68.4789 17.3558 69.6443C18.5212 70.8097 20.1019 71.4644 21.75 71.4644H32.1309C32.955 71.4644 33.7453 71.7917 34.328 72.3744C34.9107 72.9571 35.2381 73.7475 35.2381 74.5715C35.2381 75.3956 34.9107 76.1859 34.328 76.7686C33.7453 77.3513 32.955 77.6787 32.1309 77.6787H21.75C18.4537 77.6787 15.2925 76.3692 12.9617 74.0384C10.6308 71.7076 9.32141 68.5464 9.32141 65.2501V54.8691C9.32141 54.0451 9.64877 53.2548 10.2315 52.6721C10.8142 52.0894 11.6045 51.762 12.4286 51.762ZM74.5714 51.762C75.3955 51.762 76.1858 52.0894 76.7685 52.6721C77.3512 53.2548 77.6786 54.0451 77.6786 54.8691V65.2501C77.6786 68.5464 76.3691 71.7076 74.0383 74.0384C71.7075 76.3692 68.5462 77.6787 65.25 77.6787H54.869C54.045 77.6787 53.2546 77.3513 52.6719 76.7686C52.0892 76.1859 51.7619 75.3956 51.7619 74.5715C51.7619 73.7475 52.0892 72.9571 52.6719 72.3744C53.2546 71.7917 54.045 71.4644 54.869 71.4644H65.25C66.8981 71.4644 68.4787 70.8097 69.6441 69.6443C70.8095 68.4789 71.4643 66.8982 71.4643 65.2501V54.8691C71.4643 54.0451 71.7916 53.2548 72.3743 52.6721C72.957 52.0894 73.7473 51.762 74.5714 51.762ZM43.5 49.7144C45.1481 49.7144 46.7287 49.0597 47.8941 47.8943C49.0595 46.7289 49.7143 45.1482 49.7143 43.5001C49.7143 41.852 49.0595 40.2713 47.8941 39.1059C46.7287 37.9405 45.1481 37.2858 43.5 37.2858C41.8518 37.2858 40.2712 37.9405 39.1058 39.1059C37.9404 40.2713 37.2857 41.852 37.2857 43.5001C37.2857 45.1482 37.9404 46.7289 39.1058 47.8943C40.2712 49.0597 41.8518 49.7144 43.5 49.7144ZM39.2059 24.8572C38.3399 24.8573 37.491 25.0986 36.7545 25.5541C36.018 26.0096 35.4229 26.6614 35.0361 27.4362L33.2184 31.0715H31.0714C29.4233 31.0715 27.8427 31.7263 26.6772 32.8917C25.5118 34.0571 24.8571 35.6377 24.8571 37.2858V52.8215C24.8571 54.4697 25.5118 56.0503 26.6772 57.2157C27.8427 58.3811 29.4233 59.0358 31.0714 59.0358H55.9286C57.5767 59.0358 59.1573 58.3811 60.3227 57.2157C61.4881 56.0503 62.1428 54.4697 62.1428 52.8215V37.2858C62.1428 35.6377 61.4881 34.0571 60.3227 32.8917C59.1573 31.7263 57.5767 31.0715 55.9286 31.0715H53.7815L51.9638 27.4362C51.577 26.6614 50.982 26.0096 50.2455 25.5541C49.5089 25.0986 48.6601 24.8573 47.7941 24.8572H39.2059ZM43.5 34.1787C44.7241 34.1787 45.9362 34.4198 47.0671 34.8882C48.1981 35.3567 49.2257 36.0433 50.0912 36.9089C50.9568 37.7744 51.6434 38.802 52.1119 39.9329C52.5803 41.0639 52.8214 42.276 52.8214 43.5001C52.8214 44.7242 52.5803 45.9363 52.1119 47.0673C51.6434 48.1982 50.9568 49.2258 50.0912 50.0914C49.2257 50.9569 48.1981 51.6435 47.0671 52.112C45.9362 52.5804 44.7241 52.8215 43.5 52.8215C41.0278 52.8215 38.6568 51.8395 36.9087 50.0914C35.1606 48.3432 34.1786 45.9723 34.1786 43.5001C34.1786 41.0279 35.1606 38.657 36.9087 36.9089C38.6568 35.1607 41.0278 34.1787 43.5 34.1787Z" fill="#333333"/>
</svg>
