<svg width="100" height="100" viewBox="0 0 100 100" fill="none" xmlns="http://www.w3.org/2000/svg">
<path d="M77.0834 15.625H35.4167C32.3778 15.625 29.4633 16.8322 27.3144 18.9811C25.1656 21.1299 23.9584 24.0444 23.9584 27.0833V28.125H22.9167C19.8778 28.125 16.9633 29.3322 14.8144 31.4811C12.6656 33.6299 11.4584 36.5444 11.4584 39.5833V72.9167C11.4584 75.9556 12.6656 78.8701 14.8144 81.0189C16.9633 83.1678 19.8778 84.375 22.9167 84.375H64.5834C67.6223 84.375 70.5368 83.1678 72.6856 81.0189C74.8345 78.8701 76.0417 75.9556 76.0417 72.9167V71.875H77.0834C80.1223 71.875 83.0368 70.6678 85.1856 68.5189C87.3345 66.3701 88.5417 63.4556 88.5417 60.4167V27.0833C88.5417 24.0444 87.3345 21.1299 85.1856 18.9811C83.0368 16.8322 80.1223 15.625 77.0834 15.625ZM30.2084 27.0833C30.2084 25.702 30.7571 24.3772 31.7339 23.4005C32.7106 22.4237 34.0354 21.875 35.4167 21.875H77.0834C78.4647 21.875 79.7895 22.4237 80.7662 23.4005C81.743 24.3772 82.2917 25.702 82.2917 27.0833V52.9167L72.8334 44.9583C72.5253 44.6906 72.1672 44.4866 71.7797 44.3583C71.3923 44.23 70.9832 44.1799 70.5762 44.2109C70.1692 44.2419 69.7725 44.3534 69.4089 44.5389C69.0454 44.7244 68.7223 44.9803 68.4584 45.2917L64 50.5417L47.3334 34.375C47.067 34.0574 46.736 33.8002 46.3624 33.6206C45.9887 33.4409 45.5811 33.343 45.1667 33.3333C44.7373 33.3495 44.3159 33.4541 43.9288 33.6405C43.5417 33.8269 43.1971 34.0911 42.9167 34.4167L30.2084 49.5417V27.0833ZM35.4167 65.625C34.0354 65.625 32.7106 65.0763 31.7339 64.0995C30.7571 63.1228 30.2084 61.798 30.2084 60.4167V59.1667L45.5 41.1667L59.9167 55.2917L51.1667 65.625H35.4167ZM69.7917 72.9167C69.7917 74.298 69.243 75.6228 68.2662 76.5995C67.2895 77.5763 65.9647 78.125 64.5834 78.125H22.9167C21.5354 78.125 20.2106 77.5763 19.2339 76.5995C18.2571 75.6228 17.7084 74.298 17.7084 72.9167V39.5833C17.7084 38.202 18.2571 36.8772 19.2339 35.9005C20.2106 34.9237 21.5354 34.375 22.9167 34.375H23.9584V60.4167C23.9584 63.4556 25.1656 66.3701 27.3144 68.5189C29.4633 70.6678 32.3778 71.875 35.4167 71.875H69.7917V72.9167ZM77.0834 65.625H59.375L71.2084 51.7083L82.1667 61C82.0428 62.2636 81.4543 63.4363 80.5151 64.2908C79.576 65.1453 78.3531 65.6207 77.0834 65.625Z" fill="#333333"/>
</svg>
